%FSLAX45Y45*%
G04 Gerber Fmt 4.5, Leading zero omitted, Abs format (unit mm)*
G04 Created by KiCad (PCBNEW 5.1.10-88a1d61d58~90~ubuntu20.04.1) date 2021-09-15 21:40:54*
%MOMM*%
%LPD*%
G01*
G04 APERTURE LIST*
%TA.AperFunction,Profile*%
%ADD10C,0.050000*%
%TD*%
%ADD11C,0.200000*%
%ADD12C,0.300000*%
G04 APERTURE END LIST*
D10*
X14350000Y-7475000D02*
X11200000Y-7475000D01*
X14350000Y-9625000D02*
X14350000Y-7475000D01*
X11200000Y-9625000D02*
X14350000Y-9625000D01*
X11200000Y-7475000D02*
X11200000Y-9625000D01*
D11*
D12*
X11483928Y-10093214D02*
X11483928Y-9793214D01*
X11555357Y-9793214D01*
X11598214Y-9807500D01*
X11626786Y-9836072D01*
X11641071Y-9864643D01*
X11655357Y-9921786D01*
X11655357Y-9964643D01*
X11641071Y-10021786D01*
X11626786Y-10050357D01*
X11598214Y-10078929D01*
X11555357Y-10093214D01*
X11483928Y-10093214D01*
X11783928Y-10093214D02*
X11783928Y-9893214D01*
X11783928Y-9950357D02*
X11798214Y-9921786D01*
X11812500Y-9907500D01*
X11841071Y-9893214D01*
X11869643Y-9893214D01*
X11969643Y-10093214D02*
X11969643Y-9893214D01*
X11969643Y-9793214D02*
X11955357Y-9807500D01*
X11969643Y-9821786D01*
X11983928Y-9807500D01*
X11969643Y-9793214D01*
X11969643Y-9821786D01*
X12155357Y-10093214D02*
X12126786Y-10078929D01*
X12112500Y-10050357D01*
X12112500Y-9793214D01*
X12312500Y-10093214D02*
X12283928Y-10078929D01*
X12269643Y-10050357D01*
X12269643Y-9793214D01*
X12655357Y-10093214D02*
X12655357Y-9793214D01*
X12755357Y-10007500D01*
X12855357Y-9793214D01*
X12855357Y-10093214D01*
X13126786Y-10093214D02*
X13126786Y-9936072D01*
X13112500Y-9907500D01*
X13083928Y-9893214D01*
X13026786Y-9893214D01*
X12998214Y-9907500D01*
X13126786Y-10078929D02*
X13098214Y-10093214D01*
X13026786Y-10093214D01*
X12998214Y-10078929D01*
X12983928Y-10050357D01*
X12983928Y-10021786D01*
X12998214Y-9993214D01*
X13026786Y-9978929D01*
X13098214Y-9978929D01*
X13126786Y-9964643D01*
X13269643Y-9893214D02*
X13269643Y-10193214D01*
X13269643Y-9907500D02*
X13298214Y-9893214D01*
X13355357Y-9893214D01*
X13383928Y-9907500D01*
X13398214Y-9921786D01*
X13412500Y-9950357D01*
X13412500Y-10036072D01*
X13398214Y-10064643D01*
X13383928Y-10078929D01*
X13355357Y-10093214D01*
X13298214Y-10093214D01*
X13269643Y-10078929D01*
X13541071Y-10064643D02*
X13555357Y-10078929D01*
X13541071Y-10093214D01*
X13526786Y-10078929D01*
X13541071Y-10064643D01*
X13541071Y-10093214D01*
X13541071Y-9907500D02*
X13555357Y-9921786D01*
X13541071Y-9936072D01*
X13526786Y-9921786D01*
X13541071Y-9907500D01*
X13541071Y-9936072D01*
M02*
