G04 #@! TF.GenerationSoftware,KiCad,Pcbnew,5.1.10-88a1d61d58~90~ubuntu20.04.1*
G04 #@! TF.CreationDate,2021-09-15T21:40:18+02:00*
G04 #@! TF.ProjectId,snes2atari,736e6573-3261-4746-9172-692e6b696361,rev?*
G04 #@! TF.SameCoordinates,Original*
G04 #@! TF.FileFunction,Legend,Bot*
G04 #@! TF.FilePolarity,Positive*
%FSLAX46Y46*%
G04 Gerber Fmt 4.6, Leading zero omitted, Abs format (unit mm)*
G04 Created by KiCad (PCBNEW 5.1.10-88a1d61d58~90~ubuntu20.04.1) date 2021-09-15 21:40:18*
%MOMM*%
%LPD*%
G01*
G04 APERTURE LIST*
%ADD10C,0.150000*%
%ADD11C,1.500000*%
G04 APERTURE END LIST*
D10*
X116595238Y-87988095D02*
X116547619Y-87845238D01*
X116547619Y-87607142D01*
X116595238Y-87511904D01*
X116642857Y-87464285D01*
X116738095Y-87416666D01*
X116833333Y-87416666D01*
X116928571Y-87464285D01*
X116976190Y-87511904D01*
X117023809Y-87607142D01*
X117071428Y-87797619D01*
X117119047Y-87892857D01*
X117166666Y-87940476D01*
X117261904Y-87988095D01*
X117357142Y-87988095D01*
X117452380Y-87940476D01*
X117500000Y-87892857D01*
X117547619Y-87797619D01*
X117547619Y-87559523D01*
X117500000Y-87416666D01*
X116547619Y-86988095D02*
X117547619Y-86988095D01*
X116547619Y-86416666D01*
X117547619Y-86416666D01*
X117071428Y-85940476D02*
X117071428Y-85607142D01*
X116547619Y-85464285D02*
X116547619Y-85940476D01*
X117547619Y-85940476D01*
X117547619Y-85464285D01*
X116595238Y-85083333D02*
X116547619Y-84940476D01*
X116547619Y-84702380D01*
X116595238Y-84607142D01*
X116642857Y-84559523D01*
X116738095Y-84511904D01*
X116833333Y-84511904D01*
X116928571Y-84559523D01*
X116976190Y-84607142D01*
X117023809Y-84702380D01*
X117071428Y-84892857D01*
X117119047Y-84988095D01*
X117166666Y-85035714D01*
X117261904Y-85083333D01*
X117357142Y-85083333D01*
X117452380Y-85035714D01*
X117500000Y-84988095D01*
X117547619Y-84892857D01*
X117547619Y-84654761D01*
X117500000Y-84511904D01*
X141916666Y-82357142D02*
X141916666Y-82833333D01*
X142202380Y-82261904D02*
X141202380Y-82595238D01*
X142202380Y-82928571D01*
X141202380Y-83119047D02*
X141202380Y-83690476D01*
X142202380Y-83404761D02*
X141202380Y-83404761D01*
X141916666Y-83976190D02*
X141916666Y-84452380D01*
X142202380Y-83880952D02*
X141202380Y-84214285D01*
X142202380Y-84547619D01*
X142202380Y-85452380D02*
X141726190Y-85119047D01*
X142202380Y-84880952D02*
X141202380Y-84880952D01*
X141202380Y-85261904D01*
X141250000Y-85357142D01*
X141297619Y-85404761D01*
X141392857Y-85452380D01*
X141535714Y-85452380D01*
X141630952Y-85404761D01*
X141678571Y-85357142D01*
X141726190Y-85261904D01*
X141726190Y-84880952D01*
X142202380Y-85880952D02*
X141202380Y-85880952D01*
X142202380Y-87119047D02*
X141202380Y-87119047D01*
X141202380Y-87357142D01*
X141250000Y-87500000D01*
X141345238Y-87595238D01*
X141440476Y-87642857D01*
X141630952Y-87690476D01*
X141773809Y-87690476D01*
X141964285Y-87642857D01*
X142059523Y-87595238D01*
X142154761Y-87500000D01*
X142202380Y-87357142D01*
X142202380Y-87119047D01*
X141678571Y-88452380D02*
X141726190Y-88595238D01*
X141773809Y-88642857D01*
X141869047Y-88690476D01*
X142011904Y-88690476D01*
X142107142Y-88642857D01*
X142154761Y-88595238D01*
X142202380Y-88500000D01*
X142202380Y-88119047D01*
X141202380Y-88119047D01*
X141202380Y-88452380D01*
X141250000Y-88547619D01*
X141297619Y-88595238D01*
X141392857Y-88642857D01*
X141488095Y-88642857D01*
X141583333Y-88595238D01*
X141630952Y-88547619D01*
X141678571Y-88452380D01*
X141678571Y-88119047D01*
X142202380Y-89166666D02*
X142202380Y-89357142D01*
X142154761Y-89452380D01*
X142107142Y-89500000D01*
X141964285Y-89595238D01*
X141773809Y-89642857D01*
X141392857Y-89642857D01*
X141297619Y-89595238D01*
X141250000Y-89547619D01*
X141202380Y-89452380D01*
X141202380Y-89261904D01*
X141250000Y-89166666D01*
X141297619Y-89119047D01*
X141392857Y-89071428D01*
X141630952Y-89071428D01*
X141726190Y-89119047D01*
X141773809Y-89166666D01*
X141821428Y-89261904D01*
X141821428Y-89452380D01*
X141773809Y-89547619D01*
X141726190Y-89595238D01*
X141630952Y-89642857D01*
%LPC*%
D11*
X125870000Y-89750000D03*
X130750000Y-89750000D03*
G36*
G01*
X119325000Y-95175001D02*
X119325000Y-93824999D01*
G75*
G02*
X119574999Y-93575000I249999J0D01*
G01*
X120925001Y-93575000D01*
G75*
G02*
X121175000Y-93824999I0J-249999D01*
G01*
X121175000Y-95175001D01*
G75*
G02*
X120925001Y-95425000I-249999J0D01*
G01*
X119574999Y-95425000D01*
G75*
G02*
X119325000Y-95175001I0J249999D01*
G01*
G37*
G36*
G01*
X137825000Y-95175001D02*
X137825000Y-93824999D01*
G75*
G02*
X138074999Y-93575000I249999J0D01*
G01*
X139425001Y-93575000D01*
G75*
G02*
X139675000Y-93824999I0J-249999D01*
G01*
X139675000Y-95175001D01*
G75*
G02*
X139425001Y-95425000I-249999J0D01*
G01*
X138074999Y-95425000D01*
G75*
G02*
X137825000Y-95175001I0J249999D01*
G01*
G37*
G36*
G01*
X119325000Y-92175001D02*
X119325000Y-90824999D01*
G75*
G02*
X119574999Y-90575000I249999J0D01*
G01*
X120925001Y-90575000D01*
G75*
G02*
X121175000Y-90824999I0J-249999D01*
G01*
X121175000Y-92175001D01*
G75*
G02*
X120925001Y-92425000I-249999J0D01*
G01*
X119574999Y-92425000D01*
G75*
G02*
X119325000Y-92175001I0J249999D01*
G01*
G37*
G36*
G01*
X137825000Y-77175001D02*
X137825000Y-75824999D01*
G75*
G02*
X138074999Y-75575000I249999J0D01*
G01*
X139425001Y-75575000D01*
G75*
G02*
X139675000Y-75824999I0J-249999D01*
G01*
X139675000Y-77175001D01*
G75*
G02*
X139425001Y-77425000I-249999J0D01*
G01*
X138074999Y-77425000D01*
G75*
G02*
X137825000Y-77175001I0J249999D01*
G01*
G37*
G36*
G01*
X137825000Y-80175001D02*
X137825000Y-78824999D01*
G75*
G02*
X138074999Y-78575000I249999J0D01*
G01*
X139425001Y-78575000D01*
G75*
G02*
X139675000Y-78824999I0J-249999D01*
G01*
X139675000Y-80175001D01*
G75*
G02*
X139425001Y-80425000I-249999J0D01*
G01*
X138074999Y-80425000D01*
G75*
G02*
X137825000Y-80175001I0J249999D01*
G01*
G37*
G36*
G01*
X137825000Y-83175001D02*
X137825000Y-81824999D01*
G75*
G02*
X138074999Y-81575000I249999J0D01*
G01*
X139425001Y-81575000D01*
G75*
G02*
X139675000Y-81824999I0J-249999D01*
G01*
X139675000Y-83175001D01*
G75*
G02*
X139425001Y-83425000I-249999J0D01*
G01*
X138074999Y-83425000D01*
G75*
G02*
X137825000Y-83175001I0J249999D01*
G01*
G37*
G36*
G01*
X137825000Y-86175001D02*
X137825000Y-84824999D01*
G75*
G02*
X138074999Y-84575000I249999J0D01*
G01*
X139425001Y-84575000D01*
G75*
G02*
X139675000Y-84824999I0J-249999D01*
G01*
X139675000Y-86175001D01*
G75*
G02*
X139425001Y-86425000I-249999J0D01*
G01*
X138074999Y-86425000D01*
G75*
G02*
X137825000Y-86175001I0J249999D01*
G01*
G37*
G36*
G01*
X137825000Y-89175001D02*
X137825000Y-87824999D01*
G75*
G02*
X138074999Y-87575000I249999J0D01*
G01*
X139425001Y-87575000D01*
G75*
G02*
X139675000Y-87824999I0J-249999D01*
G01*
X139675000Y-89175001D01*
G75*
G02*
X139425001Y-89425000I-249999J0D01*
G01*
X138074999Y-89425000D01*
G75*
G02*
X137825000Y-89175001I0J249999D01*
G01*
G37*
G36*
G01*
X137825000Y-92175001D02*
X137825000Y-90824999D01*
G75*
G02*
X138074999Y-90575000I249999J0D01*
G01*
X139425001Y-90575000D01*
G75*
G02*
X139675000Y-90824999I0J-249999D01*
G01*
X139675000Y-92175001D01*
G75*
G02*
X139425001Y-92425000I-249999J0D01*
G01*
X138074999Y-92425000D01*
G75*
G02*
X137825000Y-92175001I0J249999D01*
G01*
G37*
G36*
G01*
X119325000Y-89175001D02*
X119325000Y-87824999D01*
G75*
G02*
X119574999Y-87575000I249999J0D01*
G01*
X120925001Y-87575000D01*
G75*
G02*
X121175000Y-87824999I0J-249999D01*
G01*
X121175000Y-89175001D01*
G75*
G02*
X120925001Y-89425000I-249999J0D01*
G01*
X119574999Y-89425000D01*
G75*
G02*
X119325000Y-89175001I0J249999D01*
G01*
G37*
G36*
G01*
X119325000Y-86175001D02*
X119325000Y-84824999D01*
G75*
G02*
X119574999Y-84575000I249999J0D01*
G01*
X120925001Y-84575000D01*
G75*
G02*
X121175000Y-84824999I0J-249999D01*
G01*
X121175000Y-86175001D01*
G75*
G02*
X120925001Y-86425000I-249999J0D01*
G01*
X119574999Y-86425000D01*
G75*
G02*
X119325000Y-86175001I0J249999D01*
G01*
G37*
G36*
G01*
X119325000Y-83175001D02*
X119325000Y-81824999D01*
G75*
G02*
X119574999Y-81575000I249999J0D01*
G01*
X120925001Y-81575000D01*
G75*
G02*
X121175000Y-81824999I0J-249999D01*
G01*
X121175000Y-83175001D01*
G75*
G02*
X120925001Y-83425000I-249999J0D01*
G01*
X119574999Y-83425000D01*
G75*
G02*
X119325000Y-83175001I0J249999D01*
G01*
G37*
G36*
G01*
X119325000Y-80175001D02*
X119325000Y-78824999D01*
G75*
G02*
X119574999Y-78575000I249999J0D01*
G01*
X120925001Y-78575000D01*
G75*
G02*
X121175000Y-78824999I0J-249999D01*
G01*
X121175000Y-80175001D01*
G75*
G02*
X120925001Y-80425000I-249999J0D01*
G01*
X119574999Y-80425000D01*
G75*
G02*
X119325000Y-80175001I0J249999D01*
G01*
G37*
G36*
G01*
X134075000Y-77175001D02*
X134075000Y-75824999D01*
G75*
G02*
X134324999Y-75575000I249999J0D01*
G01*
X135675001Y-75575000D01*
G75*
G02*
X135925000Y-75824999I0J-249999D01*
G01*
X135925000Y-77175001D01*
G75*
G02*
X135675001Y-77425000I-249999J0D01*
G01*
X134324999Y-77425000D01*
G75*
G02*
X134075000Y-77175001I0J249999D01*
G01*
G37*
M02*
