G04 #@! TF.GenerationSoftware,KiCad,Pcbnew,5.1.10-88a1d61d58~90~ubuntu20.04.1*
G04 #@! TF.CreationDate,2021-09-15T21:40:18+02:00*
G04 #@! TF.ProjectId,snes2atari,736e6573-3261-4746-9172-692e6b696361,rev?*
G04 #@! TF.SameCoordinates,Original*
G04 #@! TF.FileFunction,Copper,L2,Bot*
G04 #@! TF.FilePolarity,Positive*
%FSLAX46Y46*%
G04 Gerber Fmt 4.6, Leading zero omitted, Abs format (unit mm)*
G04 Created by KiCad (PCBNEW 5.1.10-88a1d61d58~90~ubuntu20.04.1) date 2021-09-15 21:40:18*
%MOMM*%
%LPD*%
G01*
G04 APERTURE LIST*
G04 #@! TA.AperFunction,ComponentPad*
%ADD10C,1.500000*%
G04 #@! TD*
G04 #@! TA.AperFunction,ViaPad*
%ADD11C,0.800000*%
G04 #@! TD*
G04 #@! TA.AperFunction,Conductor*
%ADD12C,0.250000*%
G04 #@! TD*
G04 #@! TA.AperFunction,Conductor*
%ADD13C,0.254000*%
G04 #@! TD*
G04 #@! TA.AperFunction,Conductor*
%ADD14C,0.100000*%
G04 #@! TD*
G04 APERTURE END LIST*
D10*
X125870000Y-89750000D03*
X130750000Y-89750000D03*
G04 #@! TA.AperFunction,ComponentPad*
G36*
G01*
X119325000Y-95175001D02*
X119325000Y-93824999D01*
G75*
G02*
X119574999Y-93575000I249999J0D01*
G01*
X120925001Y-93575000D01*
G75*
G02*
X121175000Y-93824999I0J-249999D01*
G01*
X121175000Y-95175001D01*
G75*
G02*
X120925001Y-95425000I-249999J0D01*
G01*
X119574999Y-95425000D01*
G75*
G02*
X119325000Y-95175001I0J249999D01*
G01*
G37*
G04 #@! TD.AperFunction*
G04 #@! TA.AperFunction,ComponentPad*
G36*
G01*
X137825000Y-95175001D02*
X137825000Y-93824999D01*
G75*
G02*
X138074999Y-93575000I249999J0D01*
G01*
X139425001Y-93575000D01*
G75*
G02*
X139675000Y-93824999I0J-249999D01*
G01*
X139675000Y-95175001D01*
G75*
G02*
X139425001Y-95425000I-249999J0D01*
G01*
X138074999Y-95425000D01*
G75*
G02*
X137825000Y-95175001I0J249999D01*
G01*
G37*
G04 #@! TD.AperFunction*
G04 #@! TA.AperFunction,ComponentPad*
G36*
G01*
X119325000Y-92175001D02*
X119325000Y-90824999D01*
G75*
G02*
X119574999Y-90575000I249999J0D01*
G01*
X120925001Y-90575000D01*
G75*
G02*
X121175000Y-90824999I0J-249999D01*
G01*
X121175000Y-92175001D01*
G75*
G02*
X120925001Y-92425000I-249999J0D01*
G01*
X119574999Y-92425000D01*
G75*
G02*
X119325000Y-92175001I0J249999D01*
G01*
G37*
G04 #@! TD.AperFunction*
G04 #@! TA.AperFunction,ComponentPad*
G36*
G01*
X137825000Y-77175001D02*
X137825000Y-75824999D01*
G75*
G02*
X138074999Y-75575000I249999J0D01*
G01*
X139425001Y-75575000D01*
G75*
G02*
X139675000Y-75824999I0J-249999D01*
G01*
X139675000Y-77175001D01*
G75*
G02*
X139425001Y-77425000I-249999J0D01*
G01*
X138074999Y-77425000D01*
G75*
G02*
X137825000Y-77175001I0J249999D01*
G01*
G37*
G04 #@! TD.AperFunction*
G04 #@! TA.AperFunction,ComponentPad*
G36*
G01*
X137825000Y-80175001D02*
X137825000Y-78824999D01*
G75*
G02*
X138074999Y-78575000I249999J0D01*
G01*
X139425001Y-78575000D01*
G75*
G02*
X139675000Y-78824999I0J-249999D01*
G01*
X139675000Y-80175001D01*
G75*
G02*
X139425001Y-80425000I-249999J0D01*
G01*
X138074999Y-80425000D01*
G75*
G02*
X137825000Y-80175001I0J249999D01*
G01*
G37*
G04 #@! TD.AperFunction*
G04 #@! TA.AperFunction,ComponentPad*
G36*
G01*
X137825000Y-83175001D02*
X137825000Y-81824999D01*
G75*
G02*
X138074999Y-81575000I249999J0D01*
G01*
X139425001Y-81575000D01*
G75*
G02*
X139675000Y-81824999I0J-249999D01*
G01*
X139675000Y-83175001D01*
G75*
G02*
X139425001Y-83425000I-249999J0D01*
G01*
X138074999Y-83425000D01*
G75*
G02*
X137825000Y-83175001I0J249999D01*
G01*
G37*
G04 #@! TD.AperFunction*
G04 #@! TA.AperFunction,ComponentPad*
G36*
G01*
X137825000Y-86175001D02*
X137825000Y-84824999D01*
G75*
G02*
X138074999Y-84575000I249999J0D01*
G01*
X139425001Y-84575000D01*
G75*
G02*
X139675000Y-84824999I0J-249999D01*
G01*
X139675000Y-86175001D01*
G75*
G02*
X139425001Y-86425000I-249999J0D01*
G01*
X138074999Y-86425000D01*
G75*
G02*
X137825000Y-86175001I0J249999D01*
G01*
G37*
G04 #@! TD.AperFunction*
G04 #@! TA.AperFunction,ComponentPad*
G36*
G01*
X137825000Y-89175001D02*
X137825000Y-87824999D01*
G75*
G02*
X138074999Y-87575000I249999J0D01*
G01*
X139425001Y-87575000D01*
G75*
G02*
X139675000Y-87824999I0J-249999D01*
G01*
X139675000Y-89175001D01*
G75*
G02*
X139425001Y-89425000I-249999J0D01*
G01*
X138074999Y-89425000D01*
G75*
G02*
X137825000Y-89175001I0J249999D01*
G01*
G37*
G04 #@! TD.AperFunction*
G04 #@! TA.AperFunction,ComponentPad*
G36*
G01*
X137825000Y-92175001D02*
X137825000Y-90824999D01*
G75*
G02*
X138074999Y-90575000I249999J0D01*
G01*
X139425001Y-90575000D01*
G75*
G02*
X139675000Y-90824999I0J-249999D01*
G01*
X139675000Y-92175001D01*
G75*
G02*
X139425001Y-92425000I-249999J0D01*
G01*
X138074999Y-92425000D01*
G75*
G02*
X137825000Y-92175001I0J249999D01*
G01*
G37*
G04 #@! TD.AperFunction*
G04 #@! TA.AperFunction,ComponentPad*
G36*
G01*
X119325000Y-89175001D02*
X119325000Y-87824999D01*
G75*
G02*
X119574999Y-87575000I249999J0D01*
G01*
X120925001Y-87575000D01*
G75*
G02*
X121175000Y-87824999I0J-249999D01*
G01*
X121175000Y-89175001D01*
G75*
G02*
X120925001Y-89425000I-249999J0D01*
G01*
X119574999Y-89425000D01*
G75*
G02*
X119325000Y-89175001I0J249999D01*
G01*
G37*
G04 #@! TD.AperFunction*
G04 #@! TA.AperFunction,ComponentPad*
G36*
G01*
X119325000Y-86175001D02*
X119325000Y-84824999D01*
G75*
G02*
X119574999Y-84575000I249999J0D01*
G01*
X120925001Y-84575000D01*
G75*
G02*
X121175000Y-84824999I0J-249999D01*
G01*
X121175000Y-86175001D01*
G75*
G02*
X120925001Y-86425000I-249999J0D01*
G01*
X119574999Y-86425000D01*
G75*
G02*
X119325000Y-86175001I0J249999D01*
G01*
G37*
G04 #@! TD.AperFunction*
G04 #@! TA.AperFunction,ComponentPad*
G36*
G01*
X119325000Y-83175001D02*
X119325000Y-81824999D01*
G75*
G02*
X119574999Y-81575000I249999J0D01*
G01*
X120925001Y-81575000D01*
G75*
G02*
X121175000Y-81824999I0J-249999D01*
G01*
X121175000Y-83175001D01*
G75*
G02*
X120925001Y-83425000I-249999J0D01*
G01*
X119574999Y-83425000D01*
G75*
G02*
X119325000Y-83175001I0J249999D01*
G01*
G37*
G04 #@! TD.AperFunction*
G04 #@! TA.AperFunction,ComponentPad*
G36*
G01*
X119325000Y-80175001D02*
X119325000Y-78824999D01*
G75*
G02*
X119574999Y-78575000I249999J0D01*
G01*
X120925001Y-78575000D01*
G75*
G02*
X121175000Y-78824999I0J-249999D01*
G01*
X121175000Y-80175001D01*
G75*
G02*
X120925001Y-80425000I-249999J0D01*
G01*
X119574999Y-80425000D01*
G75*
G02*
X119325000Y-80175001I0J249999D01*
G01*
G37*
G04 #@! TD.AperFunction*
G04 #@! TA.AperFunction,ComponentPad*
G36*
G01*
X134075000Y-77175001D02*
X134075000Y-75824999D01*
G75*
G02*
X134324999Y-75575000I249999J0D01*
G01*
X135675001Y-75575000D01*
G75*
G02*
X135925000Y-75824999I0J-249999D01*
G01*
X135925000Y-77175001D01*
G75*
G02*
X135675001Y-77425000I-249999J0D01*
G01*
X134324999Y-77425000D01*
G75*
G02*
X134075000Y-77175001I0J249999D01*
G01*
G37*
G04 #@! TD.AperFunction*
D11*
X125500000Y-80250000D03*
X129750000Y-83250000D03*
X129750000Y-86750000D03*
X132000000Y-85750000D03*
X130000000Y-80250000D03*
X129439334Y-79421944D03*
X130583795Y-77518525D03*
X129683702Y-78228028D03*
X131750000Y-76750000D03*
X128000000Y-78250000D03*
D12*
X127073004Y-80250000D02*
X125500000Y-80250000D01*
X128725002Y-78161408D02*
X128725002Y-78598002D01*
X130861412Y-76024998D02*
X128725002Y-78161408D01*
X134524998Y-76024998D02*
X130861412Y-76024998D01*
X135000000Y-76500000D02*
X134524998Y-76024998D01*
X128725002Y-78598002D02*
X127073004Y-80250000D01*
X129000000Y-82500000D02*
X129750000Y-83250000D01*
X120250000Y-82500000D02*
X129000000Y-82500000D01*
X120250000Y-85500000D02*
X121000000Y-85500000D01*
X122250000Y-86750000D02*
X129750000Y-86750000D01*
X121000000Y-85500000D02*
X122250000Y-86750000D01*
X129250000Y-88500000D02*
X132000000Y-85750000D01*
X120250000Y-88500000D02*
X129250000Y-88500000D01*
X138750000Y-91500000D02*
X137499990Y-90249990D01*
X130000000Y-80815685D02*
X130000000Y-80250000D01*
X137499990Y-88315675D02*
X130000000Y-80815685D01*
X137499990Y-90249990D02*
X137499990Y-88315675D01*
X138750000Y-88500000D02*
X138750000Y-88386410D01*
X130843526Y-80020524D02*
X130244946Y-79421944D01*
X138750000Y-88386410D02*
X130843526Y-80479936D01*
X130244946Y-79421944D02*
X129439334Y-79421944D01*
X130843526Y-80479936D02*
X130843526Y-80020524D01*
X137804547Y-85500000D02*
X130583795Y-78279248D01*
X130583795Y-78279248D02*
X130583795Y-77518525D01*
X138750000Y-85500000D02*
X137804547Y-85500000D01*
X138750000Y-82500000D02*
X138750000Y-83425000D01*
X131293537Y-80293537D02*
X131293537Y-79834124D01*
X139663180Y-84249990D02*
X140000010Y-84586820D01*
X137750010Y-86750010D02*
X131293537Y-80293537D01*
X140000010Y-86413180D02*
X139663180Y-86750010D01*
X131293537Y-79834124D02*
X129687441Y-78228028D01*
X129687441Y-78228028D02*
X129683702Y-78228028D01*
X139663180Y-86750010D02*
X137750010Y-86750010D01*
X138750000Y-83425000D02*
X139574990Y-84249990D01*
X140000010Y-84586820D02*
X140000010Y-86413180D01*
X139574990Y-84249990D02*
X139663180Y-84249990D01*
X134500000Y-79500000D02*
X131750000Y-76750000D01*
X138750000Y-79500000D02*
X134500000Y-79500000D01*
X131000010Y-75249990D02*
X128000000Y-78250000D01*
X137499990Y-75249990D02*
X131000010Y-75249990D01*
X138750000Y-76500000D02*
X137499990Y-75249990D01*
D13*
X127960199Y-77215000D02*
X127898061Y-77215000D01*
X127698102Y-77254774D01*
X127509744Y-77332795D01*
X127340226Y-77446063D01*
X127196063Y-77590226D01*
X127082795Y-77759744D01*
X127004774Y-77948102D01*
X126965000Y-78148061D01*
X126965000Y-78351939D01*
X127004774Y-78551898D01*
X127082795Y-78740256D01*
X127196063Y-78909774D01*
X127267246Y-78980957D01*
X126758203Y-79490000D01*
X126203711Y-79490000D01*
X126159774Y-79446063D01*
X125990256Y-79332795D01*
X125801898Y-79254774D01*
X125601939Y-79215000D01*
X125398061Y-79215000D01*
X125198102Y-79254774D01*
X125009744Y-79332795D01*
X124840226Y-79446063D01*
X124696063Y-79590226D01*
X124582795Y-79759744D01*
X124504774Y-79948102D01*
X124465000Y-80148061D01*
X124465000Y-80351939D01*
X124504774Y-80551898D01*
X124582795Y-80740256D01*
X124696063Y-80909774D01*
X124840226Y-81053937D01*
X125009744Y-81167205D01*
X125198102Y-81245226D01*
X125398061Y-81285000D01*
X125601939Y-81285000D01*
X125801898Y-81245226D01*
X125990256Y-81167205D01*
X126159774Y-81053937D01*
X126203711Y-81010000D01*
X127035682Y-81010000D01*
X127073004Y-81013676D01*
X127110326Y-81010000D01*
X127110337Y-81010000D01*
X127221990Y-80999003D01*
X127365251Y-80955546D01*
X127497280Y-80884974D01*
X127613005Y-80790001D01*
X127636808Y-80760997D01*
X128511431Y-79886374D01*
X128522129Y-79912200D01*
X128635397Y-80081718D01*
X128779560Y-80225881D01*
X128949078Y-80339149D01*
X128965000Y-80345744D01*
X128965000Y-80351939D01*
X129004774Y-80551898D01*
X129082795Y-80740256D01*
X129196063Y-80909774D01*
X129251014Y-80964725D01*
X129287982Y-81086595D01*
X129294454Y-81107931D01*
X129365026Y-81239961D01*
X129401989Y-81285000D01*
X129459999Y-81355686D01*
X129489003Y-81379489D01*
X136739991Y-88630478D01*
X136739990Y-90212667D01*
X136736314Y-90249990D01*
X136739990Y-90287312D01*
X136739990Y-90287322D01*
X136750987Y-90398975D01*
X136794444Y-90542236D01*
X136865016Y-90674266D01*
X136904861Y-90722816D01*
X136959989Y-90789991D01*
X136988993Y-90813794D01*
X137186928Y-91011729D01*
X137186928Y-92175001D01*
X137203992Y-92348255D01*
X137254528Y-92514851D01*
X137336595Y-92668387D01*
X137447038Y-92802962D01*
X137581613Y-92913405D01*
X137667370Y-92959243D01*
X137580820Y-92985498D01*
X137470506Y-93044463D01*
X137373815Y-93123815D01*
X137294463Y-93220506D01*
X137235498Y-93330820D01*
X137199188Y-93450518D01*
X137186928Y-93575000D01*
X137190000Y-94214250D01*
X137348750Y-94373000D01*
X138623000Y-94373000D01*
X138623000Y-94353000D01*
X138877000Y-94353000D01*
X138877000Y-94373000D01*
X140151250Y-94373000D01*
X140310000Y-94214250D01*
X140313072Y-93575000D01*
X140300812Y-93450518D01*
X140264502Y-93330820D01*
X140205537Y-93220506D01*
X140126185Y-93123815D01*
X140029494Y-93044463D01*
X139919180Y-92985498D01*
X139832630Y-92959243D01*
X139918387Y-92913405D01*
X140052962Y-92802962D01*
X140163405Y-92668387D01*
X140245472Y-92514851D01*
X140296008Y-92348255D01*
X140313072Y-92175001D01*
X140313072Y-90824999D01*
X140296008Y-90651745D01*
X140245472Y-90485149D01*
X140163405Y-90331613D01*
X140052962Y-90197038D01*
X139918387Y-90086595D01*
X139764851Y-90004528D01*
X139749924Y-90000000D01*
X139764851Y-89995472D01*
X139918387Y-89913405D01*
X140052962Y-89802962D01*
X140163405Y-89668387D01*
X140245472Y-89514851D01*
X140296008Y-89348255D01*
X140313072Y-89175001D01*
X140313072Y-87824999D01*
X140296008Y-87651745D01*
X140245472Y-87485149D01*
X140163405Y-87331613D01*
X140159012Y-87326260D01*
X140203181Y-87290011D01*
X140226984Y-87261007D01*
X140511007Y-86976984D01*
X140540011Y-86953181D01*
X140634984Y-86837456D01*
X140705556Y-86705427D01*
X140749013Y-86562166D01*
X140760010Y-86450513D01*
X140763687Y-86413180D01*
X140760010Y-86375847D01*
X140760010Y-84624153D01*
X140763687Y-84586820D01*
X140749013Y-84437834D01*
X140705556Y-84294573D01*
X140700439Y-84285000D01*
X140634984Y-84162544D01*
X140540011Y-84046819D01*
X140511008Y-84023017D01*
X140226984Y-83738993D01*
X140203181Y-83709989D01*
X140159012Y-83673740D01*
X140163405Y-83668387D01*
X140245472Y-83514851D01*
X140296008Y-83348255D01*
X140313072Y-83175001D01*
X140313072Y-81824999D01*
X140296008Y-81651745D01*
X140245472Y-81485149D01*
X140163405Y-81331613D01*
X140052962Y-81197038D01*
X139918387Y-81086595D01*
X139764851Y-81004528D01*
X139749924Y-81000000D01*
X139764851Y-80995472D01*
X139918387Y-80913405D01*
X140052962Y-80802962D01*
X140163405Y-80668387D01*
X140245472Y-80514851D01*
X140296008Y-80348255D01*
X140313072Y-80175001D01*
X140313072Y-78824999D01*
X140296008Y-78651745D01*
X140245472Y-78485149D01*
X140163405Y-78331613D01*
X140052962Y-78197038D01*
X139918387Y-78086595D01*
X139764851Y-78004528D01*
X139749924Y-78000000D01*
X139764851Y-77995472D01*
X139918387Y-77913405D01*
X140052962Y-77802962D01*
X140163405Y-77668387D01*
X140245472Y-77514851D01*
X140296008Y-77348255D01*
X140313072Y-77175001D01*
X140313072Y-75824999D01*
X140296008Y-75651745D01*
X140245472Y-75485149D01*
X140205304Y-75410000D01*
X142840001Y-75410000D01*
X142840000Y-95590000D01*
X140288521Y-95590000D01*
X140300812Y-95549482D01*
X140313072Y-95425000D01*
X140310000Y-94785750D01*
X140151250Y-94627000D01*
X138877000Y-94627000D01*
X138877000Y-94647000D01*
X138623000Y-94647000D01*
X138623000Y-94627000D01*
X137348750Y-94627000D01*
X137190000Y-94785750D01*
X137186928Y-95425000D01*
X137199188Y-95549482D01*
X137211479Y-95590000D01*
X121788521Y-95590000D01*
X121800812Y-95549482D01*
X121813072Y-95425000D01*
X121810000Y-94785750D01*
X121651250Y-94627000D01*
X120377000Y-94627000D01*
X120377000Y-94647000D01*
X120123000Y-94647000D01*
X120123000Y-94627000D01*
X118848750Y-94627000D01*
X118690000Y-94785750D01*
X118686928Y-95425000D01*
X118699188Y-95549482D01*
X118711479Y-95590000D01*
X112660000Y-95590000D01*
X112660000Y-78824999D01*
X118686928Y-78824999D01*
X118686928Y-80175001D01*
X118703992Y-80348255D01*
X118754528Y-80514851D01*
X118836595Y-80668387D01*
X118947038Y-80802962D01*
X119081613Y-80913405D01*
X119235149Y-80995472D01*
X119250076Y-81000000D01*
X119235149Y-81004528D01*
X119081613Y-81086595D01*
X118947038Y-81197038D01*
X118836595Y-81331613D01*
X118754528Y-81485149D01*
X118703992Y-81651745D01*
X118686928Y-81824999D01*
X118686928Y-83175001D01*
X118703992Y-83348255D01*
X118754528Y-83514851D01*
X118836595Y-83668387D01*
X118947038Y-83802962D01*
X119081613Y-83913405D01*
X119235149Y-83995472D01*
X119250076Y-84000000D01*
X119235149Y-84004528D01*
X119081613Y-84086595D01*
X118947038Y-84197038D01*
X118836595Y-84331613D01*
X118754528Y-84485149D01*
X118703992Y-84651745D01*
X118686928Y-84824999D01*
X118686928Y-86175001D01*
X118703992Y-86348255D01*
X118754528Y-86514851D01*
X118836595Y-86668387D01*
X118947038Y-86802962D01*
X119081613Y-86913405D01*
X119235149Y-86995472D01*
X119250076Y-87000000D01*
X119235149Y-87004528D01*
X119081613Y-87086595D01*
X118947038Y-87197038D01*
X118836595Y-87331613D01*
X118754528Y-87485149D01*
X118703992Y-87651745D01*
X118686928Y-87824999D01*
X118686928Y-89175001D01*
X118703992Y-89348255D01*
X118754528Y-89514851D01*
X118836595Y-89668387D01*
X118947038Y-89802962D01*
X119081613Y-89913405D01*
X119235149Y-89995472D01*
X119250076Y-90000000D01*
X119235149Y-90004528D01*
X119081613Y-90086595D01*
X118947038Y-90197038D01*
X118836595Y-90331613D01*
X118754528Y-90485149D01*
X118703992Y-90651745D01*
X118686928Y-90824999D01*
X118686928Y-92175001D01*
X118703992Y-92348255D01*
X118754528Y-92514851D01*
X118836595Y-92668387D01*
X118947038Y-92802962D01*
X119081613Y-92913405D01*
X119167370Y-92959243D01*
X119080820Y-92985498D01*
X118970506Y-93044463D01*
X118873815Y-93123815D01*
X118794463Y-93220506D01*
X118735498Y-93330820D01*
X118699188Y-93450518D01*
X118686928Y-93575000D01*
X118690000Y-94214250D01*
X118848750Y-94373000D01*
X120123000Y-94373000D01*
X120123000Y-94353000D01*
X120377000Y-94353000D01*
X120377000Y-94373000D01*
X121651250Y-94373000D01*
X121810000Y-94214250D01*
X121813072Y-93575000D01*
X121800812Y-93450518D01*
X121764502Y-93330820D01*
X121705537Y-93220506D01*
X121626185Y-93123815D01*
X121529494Y-93044463D01*
X121419180Y-92985498D01*
X121332630Y-92959243D01*
X121418387Y-92913405D01*
X121552962Y-92802962D01*
X121663405Y-92668387D01*
X121745472Y-92514851D01*
X121796008Y-92348255D01*
X121813072Y-92175001D01*
X121813072Y-90824999D01*
X121796008Y-90651745D01*
X121745472Y-90485149D01*
X121663405Y-90331613D01*
X121552962Y-90197038D01*
X121418387Y-90086595D01*
X121264851Y-90004528D01*
X121249924Y-90000000D01*
X121264851Y-89995472D01*
X121418387Y-89913405D01*
X121552962Y-89802962D01*
X121663405Y-89668387D01*
X121745472Y-89514851D01*
X121796008Y-89348255D01*
X121804700Y-89260000D01*
X124573852Y-89260000D01*
X124538225Y-89346011D01*
X124485000Y-89613589D01*
X124485000Y-89886411D01*
X124538225Y-90153989D01*
X124642629Y-90406043D01*
X124794201Y-90632886D01*
X124987114Y-90825799D01*
X125213957Y-90977371D01*
X125466011Y-91081775D01*
X125733589Y-91135000D01*
X126006411Y-91135000D01*
X126273989Y-91081775D01*
X126526043Y-90977371D01*
X126752886Y-90825799D01*
X126945799Y-90632886D01*
X127097371Y-90406043D01*
X127201775Y-90153989D01*
X127255000Y-89886411D01*
X127255000Y-89613589D01*
X127201775Y-89346011D01*
X127166148Y-89260000D01*
X129212678Y-89260000D01*
X129250000Y-89263676D01*
X129287322Y-89260000D01*
X129287333Y-89260000D01*
X129398986Y-89249003D01*
X129466946Y-89228388D01*
X129418225Y-89346011D01*
X129365000Y-89613589D01*
X129365000Y-89886411D01*
X129418225Y-90153989D01*
X129522629Y-90406043D01*
X129674201Y-90632886D01*
X129867114Y-90825799D01*
X130093957Y-90977371D01*
X130346011Y-91081775D01*
X130613589Y-91135000D01*
X130886411Y-91135000D01*
X131153989Y-91081775D01*
X131406043Y-90977371D01*
X131632886Y-90825799D01*
X131825799Y-90632886D01*
X131977371Y-90406043D01*
X132081775Y-90153989D01*
X132135000Y-89886411D01*
X132135000Y-89613589D01*
X132081775Y-89346011D01*
X131977371Y-89093957D01*
X131825799Y-88867114D01*
X131632886Y-88674201D01*
X131406043Y-88522629D01*
X131153989Y-88418225D01*
X130886411Y-88365000D01*
X130613589Y-88365000D01*
X130421615Y-88403186D01*
X132039802Y-86785000D01*
X132101939Y-86785000D01*
X132301898Y-86745226D01*
X132490256Y-86667205D01*
X132659774Y-86553937D01*
X132803937Y-86409774D01*
X132917205Y-86240256D01*
X132995226Y-86051898D01*
X133035000Y-85851939D01*
X133035000Y-85648061D01*
X132995226Y-85448102D01*
X132917205Y-85259744D01*
X132803937Y-85090226D01*
X132659774Y-84946063D01*
X132490256Y-84832795D01*
X132301898Y-84754774D01*
X132101939Y-84715000D01*
X131898061Y-84715000D01*
X131698102Y-84754774D01*
X131509744Y-84832795D01*
X131340226Y-84946063D01*
X131196063Y-85090226D01*
X131082795Y-85259744D01*
X131004774Y-85448102D01*
X130965000Y-85648061D01*
X130965000Y-85710198D01*
X130566368Y-86108830D01*
X130553937Y-86090226D01*
X130409774Y-85946063D01*
X130240256Y-85832795D01*
X130051898Y-85754774D01*
X129851939Y-85715000D01*
X129648061Y-85715000D01*
X129448102Y-85754774D01*
X129259744Y-85832795D01*
X129090226Y-85946063D01*
X129046289Y-85990000D01*
X122564802Y-85990000D01*
X121813072Y-85238271D01*
X121813072Y-84824999D01*
X121796008Y-84651745D01*
X121745472Y-84485149D01*
X121663405Y-84331613D01*
X121552962Y-84197038D01*
X121418387Y-84086595D01*
X121264851Y-84004528D01*
X121249924Y-84000000D01*
X121264851Y-83995472D01*
X121418387Y-83913405D01*
X121552962Y-83802962D01*
X121663405Y-83668387D01*
X121745472Y-83514851D01*
X121796008Y-83348255D01*
X121804700Y-83260000D01*
X128685199Y-83260000D01*
X128715000Y-83289801D01*
X128715000Y-83351939D01*
X128754774Y-83551898D01*
X128832795Y-83740256D01*
X128946063Y-83909774D01*
X129090226Y-84053937D01*
X129259744Y-84167205D01*
X129448102Y-84245226D01*
X129648061Y-84285000D01*
X129851939Y-84285000D01*
X130051898Y-84245226D01*
X130240256Y-84167205D01*
X130409774Y-84053937D01*
X130553937Y-83909774D01*
X130667205Y-83740256D01*
X130745226Y-83551898D01*
X130785000Y-83351939D01*
X130785000Y-83148061D01*
X130745226Y-82948102D01*
X130667205Y-82759744D01*
X130553937Y-82590226D01*
X130409774Y-82446063D01*
X130240256Y-82332795D01*
X130051898Y-82254774D01*
X129851939Y-82215000D01*
X129789801Y-82215000D01*
X129563803Y-81989002D01*
X129540001Y-81959999D01*
X129424276Y-81865026D01*
X129292247Y-81794454D01*
X129148986Y-81750997D01*
X129037333Y-81740000D01*
X129037322Y-81740000D01*
X129000000Y-81736324D01*
X128962678Y-81740000D01*
X121804700Y-81740000D01*
X121796008Y-81651745D01*
X121745472Y-81485149D01*
X121663405Y-81331613D01*
X121552962Y-81197038D01*
X121418387Y-81086595D01*
X121264851Y-81004528D01*
X121249924Y-81000000D01*
X121264851Y-80995472D01*
X121418387Y-80913405D01*
X121552962Y-80802962D01*
X121663405Y-80668387D01*
X121745472Y-80514851D01*
X121796008Y-80348255D01*
X121813072Y-80175001D01*
X121813072Y-78824999D01*
X121796008Y-78651745D01*
X121745472Y-78485149D01*
X121663405Y-78331613D01*
X121552962Y-78197038D01*
X121418387Y-78086595D01*
X121264851Y-78004528D01*
X121098255Y-77953992D01*
X120925001Y-77936928D01*
X119574999Y-77936928D01*
X119401745Y-77953992D01*
X119235149Y-78004528D01*
X119081613Y-78086595D01*
X118947038Y-78197038D01*
X118836595Y-78331613D01*
X118754528Y-78485149D01*
X118703992Y-78651745D01*
X118686928Y-78824999D01*
X112660000Y-78824999D01*
X112660000Y-75410000D01*
X129765198Y-75410000D01*
X127960199Y-77215000D01*
G04 #@! TA.AperFunction,Conductor*
D14*
G36*
X127960199Y-77215000D02*
G01*
X127898061Y-77215000D01*
X127698102Y-77254774D01*
X127509744Y-77332795D01*
X127340226Y-77446063D01*
X127196063Y-77590226D01*
X127082795Y-77759744D01*
X127004774Y-77948102D01*
X126965000Y-78148061D01*
X126965000Y-78351939D01*
X127004774Y-78551898D01*
X127082795Y-78740256D01*
X127196063Y-78909774D01*
X127267246Y-78980957D01*
X126758203Y-79490000D01*
X126203711Y-79490000D01*
X126159774Y-79446063D01*
X125990256Y-79332795D01*
X125801898Y-79254774D01*
X125601939Y-79215000D01*
X125398061Y-79215000D01*
X125198102Y-79254774D01*
X125009744Y-79332795D01*
X124840226Y-79446063D01*
X124696063Y-79590226D01*
X124582795Y-79759744D01*
X124504774Y-79948102D01*
X124465000Y-80148061D01*
X124465000Y-80351939D01*
X124504774Y-80551898D01*
X124582795Y-80740256D01*
X124696063Y-80909774D01*
X124840226Y-81053937D01*
X125009744Y-81167205D01*
X125198102Y-81245226D01*
X125398061Y-81285000D01*
X125601939Y-81285000D01*
X125801898Y-81245226D01*
X125990256Y-81167205D01*
X126159774Y-81053937D01*
X126203711Y-81010000D01*
X127035682Y-81010000D01*
X127073004Y-81013676D01*
X127110326Y-81010000D01*
X127110337Y-81010000D01*
X127221990Y-80999003D01*
X127365251Y-80955546D01*
X127497280Y-80884974D01*
X127613005Y-80790001D01*
X127636808Y-80760997D01*
X128511431Y-79886374D01*
X128522129Y-79912200D01*
X128635397Y-80081718D01*
X128779560Y-80225881D01*
X128949078Y-80339149D01*
X128965000Y-80345744D01*
X128965000Y-80351939D01*
X129004774Y-80551898D01*
X129082795Y-80740256D01*
X129196063Y-80909774D01*
X129251014Y-80964725D01*
X129287982Y-81086595D01*
X129294454Y-81107931D01*
X129365026Y-81239961D01*
X129401989Y-81285000D01*
X129459999Y-81355686D01*
X129489003Y-81379489D01*
X136739991Y-88630478D01*
X136739990Y-90212667D01*
X136736314Y-90249990D01*
X136739990Y-90287312D01*
X136739990Y-90287322D01*
X136750987Y-90398975D01*
X136794444Y-90542236D01*
X136865016Y-90674266D01*
X136904861Y-90722816D01*
X136959989Y-90789991D01*
X136988993Y-90813794D01*
X137186928Y-91011729D01*
X137186928Y-92175001D01*
X137203992Y-92348255D01*
X137254528Y-92514851D01*
X137336595Y-92668387D01*
X137447038Y-92802962D01*
X137581613Y-92913405D01*
X137667370Y-92959243D01*
X137580820Y-92985498D01*
X137470506Y-93044463D01*
X137373815Y-93123815D01*
X137294463Y-93220506D01*
X137235498Y-93330820D01*
X137199188Y-93450518D01*
X137186928Y-93575000D01*
X137190000Y-94214250D01*
X137348750Y-94373000D01*
X138623000Y-94373000D01*
X138623000Y-94353000D01*
X138877000Y-94353000D01*
X138877000Y-94373000D01*
X140151250Y-94373000D01*
X140310000Y-94214250D01*
X140313072Y-93575000D01*
X140300812Y-93450518D01*
X140264502Y-93330820D01*
X140205537Y-93220506D01*
X140126185Y-93123815D01*
X140029494Y-93044463D01*
X139919180Y-92985498D01*
X139832630Y-92959243D01*
X139918387Y-92913405D01*
X140052962Y-92802962D01*
X140163405Y-92668387D01*
X140245472Y-92514851D01*
X140296008Y-92348255D01*
X140313072Y-92175001D01*
X140313072Y-90824999D01*
X140296008Y-90651745D01*
X140245472Y-90485149D01*
X140163405Y-90331613D01*
X140052962Y-90197038D01*
X139918387Y-90086595D01*
X139764851Y-90004528D01*
X139749924Y-90000000D01*
X139764851Y-89995472D01*
X139918387Y-89913405D01*
X140052962Y-89802962D01*
X140163405Y-89668387D01*
X140245472Y-89514851D01*
X140296008Y-89348255D01*
X140313072Y-89175001D01*
X140313072Y-87824999D01*
X140296008Y-87651745D01*
X140245472Y-87485149D01*
X140163405Y-87331613D01*
X140159012Y-87326260D01*
X140203181Y-87290011D01*
X140226984Y-87261007D01*
X140511007Y-86976984D01*
X140540011Y-86953181D01*
X140634984Y-86837456D01*
X140705556Y-86705427D01*
X140749013Y-86562166D01*
X140760010Y-86450513D01*
X140763687Y-86413180D01*
X140760010Y-86375847D01*
X140760010Y-84624153D01*
X140763687Y-84586820D01*
X140749013Y-84437834D01*
X140705556Y-84294573D01*
X140700439Y-84285000D01*
X140634984Y-84162544D01*
X140540011Y-84046819D01*
X140511008Y-84023017D01*
X140226984Y-83738993D01*
X140203181Y-83709989D01*
X140159012Y-83673740D01*
X140163405Y-83668387D01*
X140245472Y-83514851D01*
X140296008Y-83348255D01*
X140313072Y-83175001D01*
X140313072Y-81824999D01*
X140296008Y-81651745D01*
X140245472Y-81485149D01*
X140163405Y-81331613D01*
X140052962Y-81197038D01*
X139918387Y-81086595D01*
X139764851Y-81004528D01*
X139749924Y-81000000D01*
X139764851Y-80995472D01*
X139918387Y-80913405D01*
X140052962Y-80802962D01*
X140163405Y-80668387D01*
X140245472Y-80514851D01*
X140296008Y-80348255D01*
X140313072Y-80175001D01*
X140313072Y-78824999D01*
X140296008Y-78651745D01*
X140245472Y-78485149D01*
X140163405Y-78331613D01*
X140052962Y-78197038D01*
X139918387Y-78086595D01*
X139764851Y-78004528D01*
X139749924Y-78000000D01*
X139764851Y-77995472D01*
X139918387Y-77913405D01*
X140052962Y-77802962D01*
X140163405Y-77668387D01*
X140245472Y-77514851D01*
X140296008Y-77348255D01*
X140313072Y-77175001D01*
X140313072Y-75824999D01*
X140296008Y-75651745D01*
X140245472Y-75485149D01*
X140205304Y-75410000D01*
X142840001Y-75410000D01*
X142840000Y-95590000D01*
X140288521Y-95590000D01*
X140300812Y-95549482D01*
X140313072Y-95425000D01*
X140310000Y-94785750D01*
X140151250Y-94627000D01*
X138877000Y-94627000D01*
X138877000Y-94647000D01*
X138623000Y-94647000D01*
X138623000Y-94627000D01*
X137348750Y-94627000D01*
X137190000Y-94785750D01*
X137186928Y-95425000D01*
X137199188Y-95549482D01*
X137211479Y-95590000D01*
X121788521Y-95590000D01*
X121800812Y-95549482D01*
X121813072Y-95425000D01*
X121810000Y-94785750D01*
X121651250Y-94627000D01*
X120377000Y-94627000D01*
X120377000Y-94647000D01*
X120123000Y-94647000D01*
X120123000Y-94627000D01*
X118848750Y-94627000D01*
X118690000Y-94785750D01*
X118686928Y-95425000D01*
X118699188Y-95549482D01*
X118711479Y-95590000D01*
X112660000Y-95590000D01*
X112660000Y-78824999D01*
X118686928Y-78824999D01*
X118686928Y-80175001D01*
X118703992Y-80348255D01*
X118754528Y-80514851D01*
X118836595Y-80668387D01*
X118947038Y-80802962D01*
X119081613Y-80913405D01*
X119235149Y-80995472D01*
X119250076Y-81000000D01*
X119235149Y-81004528D01*
X119081613Y-81086595D01*
X118947038Y-81197038D01*
X118836595Y-81331613D01*
X118754528Y-81485149D01*
X118703992Y-81651745D01*
X118686928Y-81824999D01*
X118686928Y-83175001D01*
X118703992Y-83348255D01*
X118754528Y-83514851D01*
X118836595Y-83668387D01*
X118947038Y-83802962D01*
X119081613Y-83913405D01*
X119235149Y-83995472D01*
X119250076Y-84000000D01*
X119235149Y-84004528D01*
X119081613Y-84086595D01*
X118947038Y-84197038D01*
X118836595Y-84331613D01*
X118754528Y-84485149D01*
X118703992Y-84651745D01*
X118686928Y-84824999D01*
X118686928Y-86175001D01*
X118703992Y-86348255D01*
X118754528Y-86514851D01*
X118836595Y-86668387D01*
X118947038Y-86802962D01*
X119081613Y-86913405D01*
X119235149Y-86995472D01*
X119250076Y-87000000D01*
X119235149Y-87004528D01*
X119081613Y-87086595D01*
X118947038Y-87197038D01*
X118836595Y-87331613D01*
X118754528Y-87485149D01*
X118703992Y-87651745D01*
X118686928Y-87824999D01*
X118686928Y-89175001D01*
X118703992Y-89348255D01*
X118754528Y-89514851D01*
X118836595Y-89668387D01*
X118947038Y-89802962D01*
X119081613Y-89913405D01*
X119235149Y-89995472D01*
X119250076Y-90000000D01*
X119235149Y-90004528D01*
X119081613Y-90086595D01*
X118947038Y-90197038D01*
X118836595Y-90331613D01*
X118754528Y-90485149D01*
X118703992Y-90651745D01*
X118686928Y-90824999D01*
X118686928Y-92175001D01*
X118703992Y-92348255D01*
X118754528Y-92514851D01*
X118836595Y-92668387D01*
X118947038Y-92802962D01*
X119081613Y-92913405D01*
X119167370Y-92959243D01*
X119080820Y-92985498D01*
X118970506Y-93044463D01*
X118873815Y-93123815D01*
X118794463Y-93220506D01*
X118735498Y-93330820D01*
X118699188Y-93450518D01*
X118686928Y-93575000D01*
X118690000Y-94214250D01*
X118848750Y-94373000D01*
X120123000Y-94373000D01*
X120123000Y-94353000D01*
X120377000Y-94353000D01*
X120377000Y-94373000D01*
X121651250Y-94373000D01*
X121810000Y-94214250D01*
X121813072Y-93575000D01*
X121800812Y-93450518D01*
X121764502Y-93330820D01*
X121705537Y-93220506D01*
X121626185Y-93123815D01*
X121529494Y-93044463D01*
X121419180Y-92985498D01*
X121332630Y-92959243D01*
X121418387Y-92913405D01*
X121552962Y-92802962D01*
X121663405Y-92668387D01*
X121745472Y-92514851D01*
X121796008Y-92348255D01*
X121813072Y-92175001D01*
X121813072Y-90824999D01*
X121796008Y-90651745D01*
X121745472Y-90485149D01*
X121663405Y-90331613D01*
X121552962Y-90197038D01*
X121418387Y-90086595D01*
X121264851Y-90004528D01*
X121249924Y-90000000D01*
X121264851Y-89995472D01*
X121418387Y-89913405D01*
X121552962Y-89802962D01*
X121663405Y-89668387D01*
X121745472Y-89514851D01*
X121796008Y-89348255D01*
X121804700Y-89260000D01*
X124573852Y-89260000D01*
X124538225Y-89346011D01*
X124485000Y-89613589D01*
X124485000Y-89886411D01*
X124538225Y-90153989D01*
X124642629Y-90406043D01*
X124794201Y-90632886D01*
X124987114Y-90825799D01*
X125213957Y-90977371D01*
X125466011Y-91081775D01*
X125733589Y-91135000D01*
X126006411Y-91135000D01*
X126273989Y-91081775D01*
X126526043Y-90977371D01*
X126752886Y-90825799D01*
X126945799Y-90632886D01*
X127097371Y-90406043D01*
X127201775Y-90153989D01*
X127255000Y-89886411D01*
X127255000Y-89613589D01*
X127201775Y-89346011D01*
X127166148Y-89260000D01*
X129212678Y-89260000D01*
X129250000Y-89263676D01*
X129287322Y-89260000D01*
X129287333Y-89260000D01*
X129398986Y-89249003D01*
X129466946Y-89228388D01*
X129418225Y-89346011D01*
X129365000Y-89613589D01*
X129365000Y-89886411D01*
X129418225Y-90153989D01*
X129522629Y-90406043D01*
X129674201Y-90632886D01*
X129867114Y-90825799D01*
X130093957Y-90977371D01*
X130346011Y-91081775D01*
X130613589Y-91135000D01*
X130886411Y-91135000D01*
X131153989Y-91081775D01*
X131406043Y-90977371D01*
X131632886Y-90825799D01*
X131825799Y-90632886D01*
X131977371Y-90406043D01*
X132081775Y-90153989D01*
X132135000Y-89886411D01*
X132135000Y-89613589D01*
X132081775Y-89346011D01*
X131977371Y-89093957D01*
X131825799Y-88867114D01*
X131632886Y-88674201D01*
X131406043Y-88522629D01*
X131153989Y-88418225D01*
X130886411Y-88365000D01*
X130613589Y-88365000D01*
X130421615Y-88403186D01*
X132039802Y-86785000D01*
X132101939Y-86785000D01*
X132301898Y-86745226D01*
X132490256Y-86667205D01*
X132659774Y-86553937D01*
X132803937Y-86409774D01*
X132917205Y-86240256D01*
X132995226Y-86051898D01*
X133035000Y-85851939D01*
X133035000Y-85648061D01*
X132995226Y-85448102D01*
X132917205Y-85259744D01*
X132803937Y-85090226D01*
X132659774Y-84946063D01*
X132490256Y-84832795D01*
X132301898Y-84754774D01*
X132101939Y-84715000D01*
X131898061Y-84715000D01*
X131698102Y-84754774D01*
X131509744Y-84832795D01*
X131340226Y-84946063D01*
X131196063Y-85090226D01*
X131082795Y-85259744D01*
X131004774Y-85448102D01*
X130965000Y-85648061D01*
X130965000Y-85710198D01*
X130566368Y-86108830D01*
X130553937Y-86090226D01*
X130409774Y-85946063D01*
X130240256Y-85832795D01*
X130051898Y-85754774D01*
X129851939Y-85715000D01*
X129648061Y-85715000D01*
X129448102Y-85754774D01*
X129259744Y-85832795D01*
X129090226Y-85946063D01*
X129046289Y-85990000D01*
X122564802Y-85990000D01*
X121813072Y-85238271D01*
X121813072Y-84824999D01*
X121796008Y-84651745D01*
X121745472Y-84485149D01*
X121663405Y-84331613D01*
X121552962Y-84197038D01*
X121418387Y-84086595D01*
X121264851Y-84004528D01*
X121249924Y-84000000D01*
X121264851Y-83995472D01*
X121418387Y-83913405D01*
X121552962Y-83802962D01*
X121663405Y-83668387D01*
X121745472Y-83514851D01*
X121796008Y-83348255D01*
X121804700Y-83260000D01*
X128685199Y-83260000D01*
X128715000Y-83289801D01*
X128715000Y-83351939D01*
X128754774Y-83551898D01*
X128832795Y-83740256D01*
X128946063Y-83909774D01*
X129090226Y-84053937D01*
X129259744Y-84167205D01*
X129448102Y-84245226D01*
X129648061Y-84285000D01*
X129851939Y-84285000D01*
X130051898Y-84245226D01*
X130240256Y-84167205D01*
X130409774Y-84053937D01*
X130553937Y-83909774D01*
X130667205Y-83740256D01*
X130745226Y-83551898D01*
X130785000Y-83351939D01*
X130785000Y-83148061D01*
X130745226Y-82948102D01*
X130667205Y-82759744D01*
X130553937Y-82590226D01*
X130409774Y-82446063D01*
X130240256Y-82332795D01*
X130051898Y-82254774D01*
X129851939Y-82215000D01*
X129789801Y-82215000D01*
X129563803Y-81989002D01*
X129540001Y-81959999D01*
X129424276Y-81865026D01*
X129292247Y-81794454D01*
X129148986Y-81750997D01*
X129037333Y-81740000D01*
X129037322Y-81740000D01*
X129000000Y-81736324D01*
X128962678Y-81740000D01*
X121804700Y-81740000D01*
X121796008Y-81651745D01*
X121745472Y-81485149D01*
X121663405Y-81331613D01*
X121552962Y-81197038D01*
X121418387Y-81086595D01*
X121264851Y-81004528D01*
X121249924Y-81000000D01*
X121264851Y-80995472D01*
X121418387Y-80913405D01*
X121552962Y-80802962D01*
X121663405Y-80668387D01*
X121745472Y-80514851D01*
X121796008Y-80348255D01*
X121813072Y-80175001D01*
X121813072Y-78824999D01*
X121796008Y-78651745D01*
X121745472Y-78485149D01*
X121663405Y-78331613D01*
X121552962Y-78197038D01*
X121418387Y-78086595D01*
X121264851Y-78004528D01*
X121098255Y-77953992D01*
X120925001Y-77936928D01*
X119574999Y-77936928D01*
X119401745Y-77953992D01*
X119235149Y-78004528D01*
X119081613Y-78086595D01*
X118947038Y-78197038D01*
X118836595Y-78331613D01*
X118754528Y-78485149D01*
X118703992Y-78651745D01*
X118686928Y-78824999D01*
X112660000Y-78824999D01*
X112660000Y-75410000D01*
X129765198Y-75410000D01*
X127960199Y-77215000D01*
G37*
G04 #@! TD.AperFunction*
M02*
