M48
; DRILL file {KiCad 5.1.10-88a1d61d58~90~ubuntu20.04.1} date Wed Sep 15 21:40:53 2021
; FORMAT={-:-/ absolute / metric / decimal}
; #@! TF.CreationDate,2021-09-15T21:40:53+02:00
; #@! TF.GenerationSoftware,Kicad,Pcbnew,5.1.10-88a1d61d58~90~ubuntu20.04.1
; #@! TF.FileFunction,Plated,1,2,PTH
FMAT,2
METRIC
T1C0.400
T2C0.800
T3C0.850
%
G90
G05
T1
X125.5Y-80.25
X128.0Y-78.25
X129.439Y-79.422
X129.684Y-78.228
X129.75Y-83.25
X129.75Y-86.75
X130.0Y-80.25
X130.584Y-77.519
X131.75Y-76.75
X132.0Y-85.75
T2
X125.87Y-89.75
X130.75Y-89.75
T3
X120.25Y-79.5
X120.25Y-82.5
X120.25Y-85.5
X120.25Y-88.5
X120.25Y-91.5
X120.25Y-94.5
X135.0Y-76.5
X138.75Y-76.5
X138.75Y-79.5
X138.75Y-82.5
X138.75Y-85.5
X138.75Y-88.5
X138.75Y-91.5
X138.75Y-94.5
T0
M30
